<?xml version="1.0" encoding="UTF-8" standalone="no"?>
<!-- Created with Inkscape (http://www.inkscape.org/) -->

<svg
   version="1.1"
   id="svg1"
   width="405.44037"
   height="409.53766"
   viewBox="0 0 405.44037 409.53766"
   sodipodi:docname="logo.svg"
   inkscape:version="1.4.2 (2aeb623e1d, 2025-05-12)"
   xmlns:inkscape="http://www.inkscape.org/namespaces/inkscape"
   xmlns:sodipodi="http://sodipodi.sourceforge.net/DTD/sodipodi-0.dtd"
   xmlns="http://www.w3.org/2000/svg"
   xmlns:svg="http://www.w3.org/2000/svg">
  <defs
     id="defs1" />
  <sodipodi:namedview
     id="namedview1"
     pagecolor="#505050"
     bordercolor="#eeeeee"
     borderopacity="1"
     inkscape:showpageshadow="0"
     inkscape:pageopacity="0"
     inkscape:pagecheckerboard="0"
     inkscape:deskcolor="#505050"
     showgrid="false"
     inkscape:zoom="1.0966797"
     inkscape:cx="226.13713"
     inkscape:cy="296.80498"
     inkscape:window-width="2560"
     inkscape:window-height="1325"
     inkscape:window-x="0"
     inkscape:window-y="32"
     inkscape:window-maximized="1"
     inkscape:current-layer="g1" />
  <g
     inkscape:groupmode="layer"
     inkscape:label="Image"
     id="g1"
     transform="translate(2227.7494,282.89077)">
    <path
       style="opacity:1;fill:#2c3639;fill-opacity:1"
       d="m -2051.9788,126.42971 c -47.8808,-2.05808 -95.5678,-10.0925 -124.8849,-21.04089 -25.9906,-9.706162 -40.3895,-20.422202 -47.4865,-35.340922 -2.696,-5.66729 -3.0945,-7.58892 -3.1104,-15 -0.022,-10.40841 1.8346,-15.73138 8.5397,-24.47942 l 4.8191,-6.28754 -2.4577,-2.30884 c -7.3902,-6.9428 -12.1205,-19.9406703 -11.0354,-30.3229403 0.7354,-7.0356297 4.3156,-15.3081197 9.2102,-21.2813897 l 3.5398,-4.31987 -3.5398,-4.31987 c -1.9469,-2.37592 -4.7849,-6.98842 -6.3066,-10.25 -2.4098,-5.16487 -2.7682,-7.15879 -2.7772,-15.45116 -0.01,-8.7422 0.257,-10.06399 3.2574,-16.15868 2.1908,-4.44999 5.2271,-8.45165 9.2127,-12.14159 l 5.9449,-5.50395 0.2873,-59.837368 c 0.2851,-59.35441 0.3055,-59.88159 2.5277,-65.31456 3.5178,-8.60083 9.0178,-15.75841 15.6808,-20.40692 11.8447,-8.2636 17.2802,-9.55875 40.2538,-9.59145 l 17.1748,-0.0245 -0.041,-10.35841 c -0.059,-15.01617 2.8603,-18.59986 15.829,-19.43214 5.9767,-0.38356 7.9736,-0.0918 11.6919,1.7082 6.2526,3.02682 7.6701,6.44279 7.6701,18.48348 v 9.59887 h 73 73 v -9.25 c 0,-15.38378 3.7822,-19.99829 16.8664,-20.59247 9.377,-0.42583 14.2076,1.27761 17.1065,6.03229 1.6768,2.75029 2.0187,5.04388 2.0219,13.56018 v 10.25 h 16.4507 c 9.048,0 18.8355,0.49933 21.75,1.10962 17.1002,3.58064 32.0759,18.55896 35.6833,35.6896 0.7459,3.54206 1.116,24.12111 1.116,62.06194 v 56.762738 l 3.0009,2.21873 c 1.6506,1.2203 4.7679,4.45399 6.9274,7.18597 11.1576,14.11539 11.1382,34.85192 -0.046,49.00065 l -3.9721,5.02505 3.4242,4.22286 c 12.4924,15.40647 12.452,34.0850097 -0.1071,49.50416 l -4.3213,5.30541 4.0001,4.5443 c 9.6928,11.01161 12.2975,26.37173 6.7312,39.69381 -11.6914,27.98152 -64.2621,48.226152 -143.2692,55.172042 -16.594,1.45886 -66.8473,2.59508 -83.3685,1.88495 z m 63,-28.396332 c 46.3842,-2.54075 84.3818,-9.06603 110.8816,-19.04157 20.004,-7.53028 30.1184,-15.92354 30.1184,-24.99312 0,-4.35325 -2.6812,-9.58761 -6.1914,-12.08711 l -2.9449,-2.09693 -6.6818,3.07806 c -57.5658,26.51819 -191.6176,33.01578 -279.1819,13.53214 -14.1675,-3.15236 -30.9486,-8.49258 -40.8124,-12.98767 -4.0905,-1.8641 -7.9678,-3.38928 -8.6163,-3.38928 -1.4125,0 -6.8782,5.61633 -8.4513,8.68426 -7.6606,14.93998 19.1983,31.15995 67.4375,40.72521 39.4427,7.82104 96.4423,11.205292 144.4425,8.57601 z m -4.5,-59.00291 c 67.2143,-3.32628 119.2327,-15.2224 138.4349,-31.6587803 9.2795,-7.94295998 9.5618,-17.4256897 0.7255,-24.3762997 l -2.7959,-2.19927 -7.6822,3.55103 c -25.6929,11.8762897 -67.1696,20.2604397 -117.1823,23.6873997 -18.5386,1.27031 -66.0696,1.27178 -85.5,0.003 -48.5384,-3.17038 -91.234,-11.77822 -117.4597,-23.6809997 -7.4179,-3.36668 -7.4739,-3.37512 -10,-1.50504 -3.9466,2.92179 -7.0403,8.1483497 -7.0403,11.8942697 0,28.2287703 100.7097,49.6193203 208.5,44.2850303 z m 11.5,-59.00391 c 75.9917,-4.66104 134,-23.2521 134,-42.94557 0,-14.52605 -24.3221,-27.31325 -67.6835,-35.5842 -15.7186,-2.998248 -19.3817,-4.276208 -21.6858,-7.565758 -2.1164,-3.02162 -2.1577,-11.68561 -0.07,-14.66634 2.7653,-3.948 7.0827,-5.48721 13.3288,-4.75196 10.3923,1.22332 34.9209,6.48208 44.4054,9.52023 5.1766,1.65822 9.703,3.01494 10.0586,3.01494 0.3556,0 0.6465,-22.34796 0.6465,-49.66214 v -49.66215 l -2.4858,-4.2418 c -4.2655,-7.27857 -8.0779,-8.43391 -27.8299,-8.43391 h -16.6843 v 9.25 c 0,7.51318 -0.3826,9.87153 -2.0219,12.56018 -2.8988,4.75468 -7.7295,6.45812 -17.1064,6.03229 -12.7963,-0.58111 -16.8637,-5.30588 -16.8664,-19.59247 v -8.25 h -73 -73 v 8.7656 c 0,10.26196 -1.741,14.55365 -7.0616,17.40713 -4.5906,2.46197 -16.1056,2.50375 -20.8673,0.0757 -6.0387,-3.07919 -7.2985,-5.85514 -7.443,-16.40021 l -0.1281,-9.34824 h -18.0762 c -17.8993,0 -18.1156,0.026 -22.0937,2.66076 -7.5125,4.97551 -7.3301,3.50088 -7.3301,59.24037 0,27.27938 0.2301,49.59887 0.5113,49.59887 0.2812,0 5.6336,-1.55267 11.8943,-3.45037 10.266,-3.11177 30.4923,-7.37939 42.7601,-9.02213 9.1978,-1.23164 14.8343,3.62736 14.8343,12.78798 0,5.30655 -2.604,9.09048 -7.2656,10.55781 -1.7789,0.55994 -9.9196,2.424068 -18.0904,4.142518 -34.5408,7.26445 -57.1745,17.01629 -63.591,27.39853 -14.4873,23.44092 44.5209,45.14281 138.447,50.91774 12.7686,0.78506 64.7028,0.55418 79.5,-0.35342 z m -60,-67.73525 c -4.7817,-3.33459 -48.1772,-46.685408 -49.7199,-49.668758 -6.1589,-11.91001 6.835,-25.34074 18.5196,-19.14214 1.4852,0.78789 10.7904,9.55757 20.6781,19.4882 l 17.9778,18.05567 32.0871,-31.98819 32.0871,-31.98819 c 3.4563,-3.2707 11.5326,-2.11796 16.353,2.2313 5.3207,4.8006 7.0443,13.22285 2.5172,17.75856 l -37,37.07046 c -20.35,20.38875 -38.2151,37.716028 -39.7003,38.505068 -3.7069,1.96937 -10.7496,1.80505 -13.7997,-0.32198 z"
       id="path2"
       sodipodi:nodetypes="ssscscssscsscsscssssccsssccccssccsssscssscsscssssssssscssssssscsscsscsssccssssssssscssccssccccsssscssssssssssssssssscccscsss" />
  </g>
</svg>
